PathFileType	4	(X/Y/Z)	D:\MotionData\NordSprintingStudy\Test 2\Edited\COP_Right_Board_FP3000001.trc
DataRate	CameraRate	NumFrames	NumMarkers	Units	OrigDataRate	OrigDataStartFrame	OrigNumFrames
200.00	200.00	     41	5	mm	200.00	8853	     17704
Frame#	Time	M1			M2			M3			M4			M5			
		X1	Y1	Z1	X2	Y2	Z2	X3	Y3	Z3	X4	Y4	Z4	X5	Y5	Z5	

8853	44.260	1760.50500	724.42841	464.55463	1645.04688	425.27344	451.89255	1653.30676	413.14963	652.10010	1670.74463	389.22952	1050.84717	1785.52917	689.03845	1063.27185	
8854	44.265	1760.25256	724.37488	464.69916	1645.17249	425.06888	451.78015	1653.39099	412.82660	651.97217	1670.70630	388.67374	1050.72937	1785.06494	688.63623	1063.25195	
8855	44.270	1759.94397	724.32605	464.83698	1645.32996	424.85654	451.64798	1653.48547	412.46808	651.87732	1670.65173	388.13956	1050.62061	1784.62805	688.26233	1063.35498	
8856	44.275	1759.61206	724.28656	464.93237	1645.47473	424.66003	451.54361	1653.57166	412.13693	651.72058	1670.59265	387.58664	1050.50952	1784.14270	687.90363	1063.43115	
8857	44.280	1759.27600	724.24585	465.05771	1645.61658	424.47583	451.45010	1653.63367	411.82660	651.61853	1670.58008	387.02234	1050.36279	1783.60254	687.49255	1063.52283	
8858	44.285	1758.92798	724.23102	465.15082	1645.74426	424.36722	451.23001	1653.72083	411.54724	651.44720	1670.49634	386.49316	1050.21777	1783.06714	687.10193	1063.59155	
8859	44.290	1758.60242	724.21179	465.28043	1645.89941	424.17551	451.13217	1653.80920	411.25073	651.32147	1670.45959	385.99615	1050.09497	1782.51807	686.81927	1063.83411	
8860	44.295	1758.26038	724.21948	465.36258	1646.06897	423.92065	451.06061	1653.89441	410.98123	651.17944	1670.38831	385.50305	1049.93225	1781.97534	686.48816	1063.92700	
8861	44.300	1757.89551	724.21191	465.48593	1646.30188	423.71472	450.89484	1653.98999	410.69748	651.04211	1670.35217	385.02490	1049.75586	1781.40222	686.18109	1064.00635	
8862	44.305	1757.51917	724.22382	465.59280	1646.53162	423.51431	450.78549	1654.11853	410.38889	650.90356	1670.29004	384.52811	1049.61646	1780.78589	685.90057	1064.09949	
8863	44.310	1757.10657	724.23969	465.68469	1646.75476	423.29077	450.63113	1654.25781	410.09515	650.74854	1670.25244	384.04239	1049.49146	1780.16187	685.65375	1064.15723	
8864	44.315	1756.68787	724.26434	465.76624	1647.25073	423.08646	450.32278	1654.40430	409.77896	650.62299	1670.23608	383.55481	1049.34912	1779.47620	685.38342	1064.27637	
8865	44.320	1756.27368	724.30841	465.87134	1647.24536	422.87152	450.39093	1654.49536	409.52277	650.49152	1670.19214	383.05994	1049.21765	1778.80969	685.15228	1064.32666	
8866	44.325	1755.78711	724.26147	465.89005	1647.50696	422.66040	450.28955	1654.77661	409.16400	650.36420	1670.17920	382.59427	1049.09155	1778.14587	684.94427	1064.43237	
8867	44.330	1755.37939	724.40350	466.14011	1647.79016	422.46912	450.15170	1654.94250	408.87540	650.25067	1670.19189	382.13141	1048.92773	1777.39587	684.75031	1064.52893	
8868	44.335	1754.92432	724.45526	466.23648	1648.14978	422.24130	449.99170	1655.14661	408.59726	650.14270	1670.22400	381.67105	1048.77100	1776.63245	684.55811	1064.65247	
8869	44.340	1754.42944	724.52661	466.32913	1648.45728	422.01755	449.88812	1655.40869	408.29828	649.99658	1670.24280	381.22476	1048.67578	1775.88660	684.31000	1064.64575	
8870	44.345	1753.91833	724.62622	466.41165	1648.79834	421.82715	449.75427	1655.62158	407.99054	649.90515	1670.27234	380.77881	1048.56824	1774.93982	684.20721	1064.84924	
8871	44.350	1753.34521	724.67755	466.52243	1649.12219	421.61209	449.69620	1655.86914	407.69974	649.80792	1670.29919	380.31531	1048.48877	1774.06458	683.98444	1064.79834	
8872	44.355	1752.83093	724.73242	466.63385	1649.46130	421.39050	449.59460	1656.11218	407.40680	649.68597	1670.33057	379.86316	1048.40344	1773.18384	683.87744	1064.88721	
8873	44.360	1752.28992	724.81110	466.73431	1649.86023	421.14783	449.47534	1656.34229	407.10245	649.60858	1670.40686	379.42111	1048.26111	1772.30371	683.83191	1065.13574	
8874	44.365	1751.80603	724.90350	466.82211	1650.23669	420.91064	449.36362	1656.64209	406.80310	649.49274	1670.46228	378.98926	1048.16785	1771.33716	683.70471	1065.25366	
8875	44.370	1751.15552	724.97852	466.94199	1650.61731	420.68497	449.27869	1656.91699	406.50641	649.39130	1670.54114	378.57562	1048.06079	1770.36926	683.58429	1065.35535	
8876	44.375	1750.51392	725.09125	467.04773	1651.02258	420.46902	449.17349	1657.18506	406.23660	649.28796	1670.61011	378.17944	1047.96387	1769.90344	683.55902	1065.40564	
8877	44.380	1749.85461	725.22180	467.17459	1651.45996	420.24396	449.09024	1657.49182	405.94949	649.20837	1670.70825	377.78711	1047.89990	1768.85205	683.47455	1065.52820	
8878	44.385	1749.22900	725.34155	467.26987	1651.90576	420.01614	449.02176	1657.83191	405.64978	649.10498	1670.78735	377.38593	1047.81860	1767.33813	683.38647	1065.70581	
8879	44.390	1748.09387	725.43451	467.38315	1652.37708	419.77319	448.94272	1658.11475	405.42438	649.01715	1670.89331	377.00281	1047.74170	1766.27661	683.36670	1065.82605	
8880	44.395	1747.31775	725.55884	467.46436	1652.80981	419.55368	448.92126	1658.48108	405.13733	648.95557	1671.02405	376.61490	1047.68103	1765.23999	683.36194	1065.93555	
8881	44.400	1747.13330	725.74042	467.52081	1653.30640	419.32706	448.77637	1658.91394	404.79657	648.89746	1671.20837	376.23843	1047.56079	1764.13867	683.37854	1066.02173	
8882	44.405	1746.39319	725.90570	467.57645	1653.81104	419.07874	448.70981	1659.33691	404.52072	648.79456	1671.36829	375.87210	1047.48010	1763.01721	683.38147	1066.11475	
8883	44.410	1744.97046	725.97534	467.60635	1654.35437	418.87906	448.61261	1659.68579	404.29068	648.70172	1671.51965	375.53073	1047.39221	1761.90784	683.39191	1066.19678	
8884	44.415	1746.01001	726.14270	468.08594	1654.93164	418.64499	448.54111	1660.18079	403.99167	648.58887	1671.69690	375.20847	1047.29321	1760.67566	683.42474	1066.24951	
8885	44.420	1745.29053	726.32275	468.16864	1655.45300	418.41498	448.46542	1660.61804	403.74658	648.50494	1671.89355	374.89450	1047.21521	1759.59009	683.46204	1066.29553	
8886	44.425	1743.93372	726.45410	468.46042	1656.07593	418.18680	448.34445	1661.06750	403.48230	648.44989	1672.15503	374.56149	1047.09143	1758.42285	683.40271	1066.22351	
8887	44.430	1743.14478	726.59521	468.54565	1656.61157	417.98767	448.24448	1661.53625	403.22568	648.31470	1672.35657	374.25082	1047.00244	1757.17932	683.55670	1066.42542	
8888	44.435	1742.41260	726.72552	468.64740	1657.15698	417.76254	448.15085	1661.95911	402.97552	648.23889	1672.53662	373.97470	1046.92639	1756.05762	683.62073	1066.52246	
8889	44.440	1741.71082	726.89410	468.75107	1657.59680	417.58682	448.09387	1662.32178	402.75970	648.16077	1672.65137	373.72983	1046.87280	1754.99451	683.69196	1066.61621	
8890	44.445	1741.09143	727.02765	468.83136	1658.03870	417.43399	448.00388	1662.61841	402.58920	648.07214	1672.71277	373.52206	1046.79980	1753.94849	683.76227	1066.65649	
8891	44.450	1740.51868	727.11694	468.90933	1658.39392	417.29187	447.96820	1662.84717	402.45844	648.00806	1672.71094	373.34891	1046.75745	1752.98132	683.83850	1066.72754	
8892	44.455	1740.00574	727.21771	468.98749	1658.70715	417.18674	447.90833	1663.04224	402.31451	647.96826	1672.65857	373.21677	1046.71655	1752.11560	683.92871	1066.81616	
8893	44.460	1739.72131	727.19794	469.03238	1658.96143	417.10474	447.82983	1663.13806	402.23599	647.91577	1672.53308	373.12021	1046.68066	1751.26294	684.03790	1066.85474	
